<svg version="1.1" xmlns="http://www.w3.org/2000/svg" viewBox="0 0 1120.7999877929688 588.7999954223633" width="1120.7999877929688" height="588.7999954223633">
  <!-- svg-source:excalidraw -->
  
  <defs>
    <style class="style-fonts">
      @font-face {
        font-family: "Virgil";
        src: url("https://excalidraw.com/Virgil.woff2");
      }
      @font-face {
        font-family: "Cascadia";
        src: url("https://excalidraw.com/Cascadia.woff2");
      }
      @font-face {
        font-family: "Assistant";
        src: url("https://excalidraw.com/Assistant-Regular.woff2");
      }
    </style>
    
  </defs>
  <g transform="translate(158 119.60002899169922) rotate(0 318.3999786376953 7.599971771240234)" stroke="none"><path fill="#1e1e1e" d="M 2.07,3.23 Q 2.07,3.23 -1.17,5.25 -4.42,7.27 -6.06,8.68 -7.69,10.09 -9.29,7.95 -10.89,5.81 -6.56,3.63 -2.23,1.44 7.52,-3.72 17.29,-8.90 31.47,-15.92 45.65,-22.95 63.39,-32.08 81.13,-41.21 101.40,-50.61 121.67,-60.02 142.26,-69.05 162.85,-78.08 181.30,-85.37 199.76,-92.66 212.42,-97.57 225.08,-102.49 232.31,-105.26 239.54,-108.04 242.30,-108.96 245.06,-109.88 245.43,-109.97 245.80,-110.07 246.18,-110.07 246.56,-110.07 246.94,-109.98 247.31,-109.89 247.65,-109.72 247.99,-109.54 248.27,-109.29 248.56,-109.04 248.78,-108.73 249.00,-108.41 249.14,-108.06 249.28,-107.70 249.33,-107.32 249.37,-106.94 249.33,-106.56 249.29,-106.18 249.15,-105.82 249.02,-105.47 248.81,-105.15 248.59,-104.83 248.31,-104.58 248.02,-104.32 247.68,-104.14 247.35,-103.96 244.95,-98.97 242.54,-93.97 235.33,-84.16 228.11,-74.34 219.28,-62.82 210.45,-51.30 201.93,-37.78 193.42,-24.27 186.15,-9.64 178.88,4.99 172.56,19.25 166.24,33.51 161.98,46.82 157.72,60.13 155.70,72.77 153.68,85.42 153.96,94.07 154.24,102.72 155.85,107.92 157.46,113.12 160.53,115.65 163.60,118.17 170.04,119.22 176.48,120.26 191.02,118.28 205.56,116.30 225.05,110.45 244.53,104.59 270.29,94.76 296.05,84.92 328.16,71.77 360.28,58.62 397.65,43.82 435.01,29.02 476.64,12.16 518.26,-4.70 549.33,-16.25 580.40,-27.80 599.58,-34.78 618.76,-41.75 627.63,-44.73 636.50,-47.70 643.03,-49.90 649.56,-52.09 649.98,-52.15 650.40,-52.22 650.82,-52.15 651.24,-52.08 651.61,-51.88 651.99,-51.68 652.28,-51.38 652.57,-51.07 652.75,-50.68 652.93,-50.29 652.97,-49.87 653.02,-49.45 652.93,-49.03 652.83,-48.62 652.61,-48.26 652.39,-47.89 652.07,-47.62 651.75,-47.34 651.35,-47.19 650.96,-47.03 650.53,-47.01 650.11,-46.98 649.70,-47.10 649.29,-47.21 648.94,-47.45 648.59,-47.69 648.33,-48.03 648.07,-48.37 647.94,-48.77 647.80,-49.17 647.80,-49.60 647.80,-50.02 647.94,-50.43 648.08,-50.83 648.33,-51.17 648.59,-51.51 648.94,-51.74 649.30,-51.98 649.71,-52.09 650.12,-52.21 650.54,-52.18 650.96,-52.16 651.36,-52.00 651.75,-51.84 652.08,-51.57 652.40,-51.29 652.62,-50.93 652.84,-50.56 652.93,-50.15 653.02,-49.73 652.97,-49.31 652.93,-48.89 652.75,-48.50 652.57,-48.12 652.27,-47.81 651.98,-47.50 651.61,-47.30 651.23,-47.10 651.23,-47.10 651.23,-47.10 644.70,-44.91 638.17,-42.72 629.36,-39.77 620.56,-36.82 601.39,-29.85 582.23,-22.87 551.23,-11.35 520.24,0.17 478.59,17.04 436.95,33.91 399.61,48.70 362.27,63.49 330.10,76.66 297.92,89.84 271.99,99.74 246.05,109.64 226.16,115.58 206.26,121.52 190.93,123.49 175.60,125.45 168.03,123.88 160.46,122.31 156.54,118.67 152.62,115.03 150.78,108.98 148.93,102.93 148.67,93.76 148.40,84.59 150.49,71.55 152.59,58.50 156.93,44.91 161.27,31.32 167.61,16.94 173.95,2.55 181.32,-12.34 188.68,-27.24 197.29,-41.00 205.90,-54.76 214.63,-66.28 223.35,-77.80 230.39,-87.57 237.43,-97.34 239.87,-101.04 242.30,-104.73 243.68,-107.30 245.06,-109.88 245.43,-109.97 245.80,-110.07 246.18,-110.07 246.56,-110.07 246.94,-109.98 247.31,-109.89 247.65,-109.72 247.99,-109.54 248.27,-109.29 248.56,-109.04 248.78,-108.73 249.00,-108.41 249.14,-108.06 249.28,-107.70 249.33,-107.32 249.37,-106.94 249.33,-106.56 249.29,-106.18 249.15,-105.82 249.02,-105.47 248.81,-105.15 248.59,-104.83 248.31,-104.58 248.02,-104.32 247.68,-104.14 247.35,-103.96 244.43,-103.43 241.52,-102.90 234.32,-100.09 227.12,-97.28 214.50,-92.30 201.87,-87.33 183.55,-80.00 165.24,-72.68 144.76,-63.56 124.28,-54.44 104.21,-44.95 84.13,-35.45 66.47,-26.10 48.80,-16.75 34.88,-9.51 20.97,-2.26 11.16,3.39 1.36,9.06 -3.24,11.44 -7.85,13.82 -10.06,13.56 -12.27,13.30 -14.02,11.14 -15.76,8.99 -14.13,6.26 -12.49,3.54 -10.47,2.27 -8.45,1.00 -5.26,-1.11 -2.07,-3.23 -1.66,-3.43 -1.24,-3.63 -0.79,-3.73 -0.33,-3.82 0.12,-3.81 0.58,-3.79 1.03,-3.67 1.47,-3.54 1.88,-3.31 2.28,-3.08 2.62,-2.77 2.95,-2.45 3.20,-2.06 3.45,-1.67 3.60,-1.23 3.75,-0.79 3.79,-0.33 3.84,0.12 3.76,0.58 3.69,1.04 3.52,1.46 3.34,1.89 3.06,2.26 2.79,2.64 2.43,2.93 2.07,3.23 2.07,3.23 L 2.07,3.23 Z"></path></g><g transform="translate(775.6000366210938 101.20000457763672) rotate(0 -184.40005493164062 161.60001373291016)" stroke="none"><path fill="#1e1e1e" d="M 1.46,2.76 Q 1.46,2.76 -2.47,4.77 -6.42,6.78 -16.60,12.21 -26.79,17.64 -38.03,23.62 -49.27,29.60 -68.59,39.05 -87.91,48.50 -110.62,58.96 -133.33,69.41 -161.89,81.00 -190.45,92.59 -224.45,105.33 -258.45,118.07 -296.09,133.13 -333.73,148.19 -377.31,166.77 -420.89,185.35 -459.41,202.89 -497.92,220.44 -529.01,235.03 -560.10,249.61 -583.65,261.09 -607.20,272.58 -625.28,281.15 -643.36,289.72 -655.43,295.20 -667.49,300.69 -673.55,303.48 -679.60,306.27 -681.81,306.76 -684.02,307.26 -684.38,307.37 -684.74,307.49 -685.12,307.51 -685.50,307.54 -685.87,307.48 -686.25,307.41 -686.59,307.26 -686.94,307.11 -687.24,306.88 -687.54,306.65 -687.78,306.35 -688.01,306.05 -688.17,305.71 -688.33,305.37 -688.40,304.99 -688.47,304.62 -688.46,304.24 -688.44,303.87 -688.33,303.50 -688.22,303.14 -688.02,302.81 -687.83,302.49 -687.57,302.22 -687.30,301.95 -686.98,301.75 -686.66,301.55 -684.28,299.48 -681.89,297.41 -673.38,292.34 -664.87,287.27 -650.18,280.30 -635.50,273.34 -612.89,264.39 -590.29,255.45 -567.61,246.38 -544.93,237.31 -522.61,228.85 -500.29,220.39 -480.58,214.93 -460.87,209.46 -445.27,206.90 -429.67,204.33 -418.88,203.24 -408.08,202.16 -401.40,202.86 -394.72,203.56 -390.44,205.36 -386.16,207.16 -383.11,210.45 -380.06,213.75 -377.47,218.23 -374.87,222.71 -372.16,228.80 -369.45,234.89 -366.26,242.26 -363.06,249.64 -358.55,257.71 -354.04,265.78 -345.37,275.46 -336.70,285.15 -326.04,292.62 -315.38,300.09 -301.82,305.51 -288.26,310.92 -271.85,313.67 -255.43,316.42 -236.63,315.99 -217.82,315.57 -196.13,311.51 -174.45,307.44 -145.69,299.75 -116.93,292.06 -90.47,283.51 -64.01,274.96 -41.68,268.09 -19.35,261.23 -1.79,256.23 15.76,251.24 28.30,247.96 40.84,244.69 50.34,242.59 59.85,240.50 66.04,239.60 72.23,238.70 75.84,238.83 79.44,238.96 82.22,239.64 85.00,240.32 87.53,240.00 90.06,239.69 96.14,239.24 102.23,238.80 114.08,237.31 125.93,235.81 145.99,233.60 166.05,231.39 187.71,229.57 209.38,227.74 236.30,225.84 263.22,223.94 276.05,223.16 288.87,222.37 298.04,222.04 307.20,221.72 313.94,221.48 320.69,221.24 321.13,221.30 321.57,221.35 321.97,221.55 322.37,221.74 322.69,222.05 323.01,222.36 323.21,222.76 323.42,223.16 323.48,223.60 323.55,224.04 323.47,224.48 323.39,224.91 323.17,225.30 322.96,225.69 322.63,226.00 322.30,226.30 321.90,226.48 321.49,226.66 321.05,226.70 320.60,226.74 320.17,226.64 319.74,226.54 319.36,226.30 318.98,226.06 318.70,225.72 318.41,225.38 318.26,224.96 318.10,224.54 318.08,224.10 318.06,223.65 318.19,223.23 318.32,222.80 318.57,222.44 318.83,222.07 319.19,221.81 319.54,221.54 319.97,221.41 320.39,221.27 320.84,221.28 321.28,221.29 321.70,221.44 322.12,221.58 322.47,221.86 322.82,222.13 323.07,222.51 323.31,222.88 323.42,223.31 323.54,223.74 323.50,224.18 323.47,224.63 323.30,225.04 323.13,225.45 322.84,225.79 322.54,226.12 322.16,226.34 321.77,226.57 321.34,226.66 320.90,226.75 320.90,226.75 320.90,226.75 314.16,227.03 307.42,227.32 298.33,227.70 289.24,228.08 276.45,228.96 263.65,229.84 236.78,231.86 209.92,233.88 188.36,235.86 166.80,237.84 146.84,240.27 126.89,242.69 114.95,244.52 103.02,246.34 96.42,247.22 89.83,248.10 87.08,247.87 84.34,247.63 81.60,246.27 78.86,244.91 75.91,244.40 72.95,243.90 66.97,244.77 60.98,245.64 51.57,247.70 42.16,249.77 29.68,253.03 17.20,256.29 -0.30,261.27 -17.81,266.25 -40.10,273.11 -62.40,279.97 -88.98,288.55 -115.57,297.14 -144.53,304.88 -173.48,312.62 -195.59,316.73 -217.70,320.84 -237.00,321.23 -256.29,321.63 -273.25,318.73 -290.21,315.83 -304.31,310.14 -318.40,304.44 -329.52,296.57 -340.64,288.71 -349.67,278.56 -358.69,268.41 -363.34,260.10 -367.99,251.79 -371.19,244.44 -374.40,237.10 -377.01,231.28 -379.62,225.45 -381.96,221.40 -384.31,217.34 -386.39,214.61 -388.46,211.88 -391.91,210.34 -395.36,208.79 -401.47,208.11 -407.57,207.42 -418.19,208.50 -428.81,209.57 -444.13,212.08 -459.45,214.60 -478.92,220.00 -498.39,225.41 -520.66,233.87 -542.92,242.33 -565.60,251.43 -588.27,260.52 -610.70,269.43 -633.12,278.34 -647.55,285.23 -661.98,292.12 -670.01,296.92 -678.04,301.73 -681.03,304.49 -684.02,307.26 -684.38,307.37 -684.74,307.49 -685.12,307.51 -685.50,307.54 -685.87,307.48 -686.25,307.41 -686.59,307.26 -686.94,307.11 -687.24,306.88 -687.54,306.65 -687.78,306.35 -688.01,306.05 -688.17,305.71 -688.33,305.37 -688.40,304.99 -688.47,304.62 -688.46,304.24 -688.44,303.87 -688.33,303.50 -688.22,303.14 -688.02,302.82 -687.83,302.49 -687.57,302.22 -687.30,301.95 -686.98,301.75 -686.66,301.55 -684.19,301.51 -681.73,301.47 -675.70,298.69 -669.67,295.90 -657.65,290.43 -645.62,284.95 -627.56,276.39 -609.51,267.84 -585.93,256.33 -562.34,244.83 -531.23,230.23 -500.12,215.62 -461.54,198.04 -422.97,180.46 -379.34,161.85 -335.71,143.24 -298.02,128.15 -260.33,113.05 -226.41,100.32 -192.48,87.58 -164.05,76.02 -135.62,64.46 -112.98,54.00 -90.34,43.54 -71.14,34.08 -51.93,24.63 -40.73,18.59 -29.53,12.55 -19.37,7.02 -9.21,1.49 -5.34,-0.63 -1.46,-2.76 -1.11,-2.89 -0.75,-3.03 -0.38,-3.07 -0.01,-3.12 0.36,-3.08 0.73,-3.03 1.08,-2.90 1.44,-2.77 1.75,-2.55 2.06,-2.34 2.31,-2.06 2.56,-1.78 2.74,-1.45 2.91,-1.11 3.00,-0.75 3.10,-0.38 3.10,-0.01 3.10,0.36 3.01,0.73 2.92,1.09 2.75,1.43 2.57,1.76 2.32,2.04 2.07,2.33 1.77,2.54 1.46,2.76 1.46,2.76 L 1.46,2.76 Z"></path></g><g transform="translate(885.2000122070312 227.60001373291016) rotate(0 -12.4000244140625 175.59999084472656)" stroke="none"><path fill="#1e1e1e" d="M 2.02,2.38 Q 2.02,2.38 -2.62,6.23 -7.26,10.09 -14.39,15.23 -21.52,20.37 -29.83,26.21 -38.14,32.04 -48.61,38.91 -59.08,45.77 -71.84,53.52 -84.59,61.28 -99.48,69.42 -114.38,77.56 -129.38,86.50 -144.39,95.43 -158.13,103.83 -171.87,112.23 -185.03,121.06 -198.19,129.89 -206.47,136.58 -214.75,143.26 -219.02,148.17 -223.29,153.08 -223.87,156.92 -224.45,160.77 -220.39,165.50 -216.33,170.23 -204.11,176.36 -191.88,182.49 -171.87,186.97 -151.85,191.45 -124.08,193.60 -96.32,195.75 -61.73,196.68 -27.15,197.60 10.91,195.23 48.98,192.87 83.33,189.34 117.68,185.81 144.95,183.15 172.23,180.50 186.35,179.14 200.47,177.79 207.80,177.68 215.13,177.58 219.35,180.26 223.57,182.94 222.97,187.51 222.38,192.08 218.22,200.61 214.06,209.13 206.07,222.81 198.09,236.48 190.07,248.75 182.05,261.02 172.48,276.97 162.90,292.93 155.37,306.14 147.85,319.35 143.06,328.38 138.26,337.42 135.73,341.78 133.20,346.13 132.81,348.10 132.43,350.07 132.20,350.37 131.97,350.68 131.67,350.92 131.37,351.16 131.03,351.32 130.68,351.49 130.31,351.56 129.94,351.64 129.56,351.62 129.17,351.61 128.81,351.50 128.44,351.39 128.11,351.20 127.78,351.01 127.51,350.74 127.23,350.48 127.03,350.16 126.83,349.83 126.71,349.47 126.59,349.11 126.56,348.73 126.53,348.35 126.59,347.97 126.65,347.60 126.80,347.24 126.95,346.89 131.13,345.40 135.30,343.91 142.14,340.50 148.98,337.08 158.10,331.30 167.22,325.52 174.18,319.05 181.14,312.59 184.65,308.65 188.15,304.71 186.47,301.64 184.80,298.58 176.28,296.01 167.76,293.44 153.80,291.51 139.83,289.57 107.72,288.73 75.61,287.90 29.70,286.61 -16.20,285.33 -73.41,284.79 -130.62,284.24 -165.06,284.01 -199.50,283.77 -224.95,283.60 -250.41,283.43 -250.83,283.36 -251.25,283.29 -251.63,283.08 -252.00,282.88 -252.29,282.57 -252.59,282.26 -252.76,281.87 -252.94,281.48 -252.98,281.06 -253.02,280.63 -252.93,280.22 -252.84,279.80 -252.61,279.44 -252.39,279.08 -252.06,278.80 -251.74,278.53 -251.34,278.37 -250.94,278.22 -250.52,278.20 -250.09,278.18 -249.68,278.29 -249.27,278.41 -248.92,278.65 -248.57,278.89 -248.31,279.24 -248.06,279.58 -247.93,279.98 -247.79,280.39 -247.80,280.81 -247.80,281.24 -247.94,281.64 -248.08,282.05 -248.34,282.38 -248.60,282.72 -248.95,282.96 -249.31,283.19 -249.72,283.31 -250.13,283.42 -250.55,283.39 -250.98,283.36 -251.37,283.20 -251.77,283.04 -252.09,282.76 -252.41,282.49 -252.63,282.12 -252.85,281.75 -252.94,281.34 -253.03,280.92 -252.98,280.50 -252.93,280.07 -252.75,279.69 -252.57,279.30 -252.27,278.99 -251.97,278.69 -251.60,278.49 -251.22,278.29 -250.80,278.23 -250.38,278.16 -250.38,278.16 -250.38,278.16 -224.92,278.33 -199.46,278.50 -165.01,278.73 -130.57,278.96 -73.31,279.50 -16.06,280.04 29.84,281.31 75.75,282.59 108.16,283.44 140.56,284.29 155.01,286.32 169.45,288.35 179.08,291.88 188.71,295.40 190.77,300.17 192.82,304.95 188.87,310.79 184.93,316.64 177.60,323.46 170.28,330.28 160.94,336.28 151.60,342.27 144.22,346.00 136.85,349.73 134.64,349.90 132.43,350.07 132.20,350.37 131.97,350.68 131.67,350.92 131.37,351.16 131.03,351.32 130.68,351.49 130.31,351.56 129.94,351.64 129.56,351.62 129.17,351.61 128.81,351.50 128.44,351.39 128.11,351.20 127.78,351.01 127.51,350.74 127.23,350.48 127.03,350.16 126.83,349.83 126.71,349.47 126.59,349.11 126.56,348.73 126.53,348.35 126.59,347.97 126.65,347.60 126.80,347.25 126.95,346.89 127.77,345.19 128.59,343.49 131.07,339.21 133.55,334.93 138.37,325.81 143.19,316.70 150.73,303.42 158.26,290.15 167.87,274.09 177.48,258.04 185.39,245.87 193.30,233.70 201.15,220.17 208.99,206.65 212.85,198.80 216.71,190.95 215.81,186.85 214.92,182.76 207.95,182.89 200.97,183.02 186.86,184.37 172.74,185.73 145.48,188.38 118.21,191.04 83.76,194.58 49.31,198.12 11.01,200.49 -27.29,202.85 -62.01,201.92 -96.72,201.00 -124.86,198.79 -153.00,196.58 -173.62,191.89 -194.24,187.20 -207.28,180.41 -220.31,173.62 -224.82,167.43 -229.32,161.24 -228.39,155.63 -227.46,150.02 -222.78,144.58 -218.09,139.15 -209.62,132.32 -201.15,125.49 -187.90,116.59 -174.65,107.69 -160.89,99.26 -147.13,90.83 -132.05,81.83 -116.97,72.82 -102.20,64.72 -87.43,56.62 -74.77,48.88 -62.12,41.15 -51.76,34.30 -41.40,27.44 -33.16,21.57 -24.93,15.70 -18.03,10.62 -11.13,5.54 -6.57,1.58 -2.02,-2.38 -1.70,-2.58 -1.39,-2.79 -1.04,-2.92 -0.68,-3.04 -0.31,-3.08 0.06,-3.12 0.43,-3.07 0.80,-3.01 1.15,-2.87 1.50,-2.73 1.81,-2.51 2.11,-2.29 2.36,-2.00 2.60,-1.72 2.77,-1.38 2.94,-1.04 3.02,-0.68 3.10,-0.31 3.10,0.06 3.09,0.44 2.99,0.80 2.89,1.16 2.71,1.49 2.53,1.82 2.27,2.10 2.02,2.38 2.02,2.38 L 2.02,2.38 Z"></path></g><g transform="translate(382.79998779296875 166.79999542236328) rotate(0 -112.39999389648438 126.80001831054688)" stroke="none"><path fill="#1e1e1e" d="M 1.33,2.82 Q 1.33,2.82 -3.06,4.83 -7.46,6.84 -11.93,8.62 -16.41,10.41 -25.31,15.00 -34.20,19.58 -46.31,25.92 -58.42,32.25 -74.45,39.56 -90.48,46.88 -109.69,55.50 -128.91,64.11 -152.91,75.57 -176.92,87.04 -199.09,97.66 -221.27,108.28 -241.25,118.31 -261.23,128.33 -279.14,137.87 -297.04,147.40 -311.55,155.37 -326.06,163.33 -337.03,169.69 -348.01,176.05 -354.49,180.11 -360.96,184.18 -363.86,186.25 -366.76,188.31 -367.91,189.57 -369.06,190.83 -369.43,191.01 -369.79,191.19 -370.19,191.28 -370.58,191.37 -370.99,191.36 -371.39,191.35 -371.79,191.24 -372.18,191.14 -372.53,190.94 -372.89,190.74 -373.18,190.47 -373.48,190.19 -373.70,189.85 -373.93,189.51 -374.06,189.13 -374.20,188.75 -374.23,188.34 -374.27,187.94 -374.22,187.54 -374.16,187.14 -374.01,186.76 -373.85,186.39 -373.61,186.06 -373.38,185.73 -373.07,185.47 -372.76,185.21 -368.95,185.68 -365.13,186.15 -357.35,186.48 -349.56,186.81 -334.86,187.01 -320.16,187.20 -296.89,187.31 -273.61,187.41 -228.30,187.47 -182.98,187.53 -131.51,188.03 -80.04,188.53 -37.21,189.90 5.61,191.27 36.25,193.01 66.90,194.75 86.87,196.88 106.85,199.00 116.31,200.61 125.77,202.22 130.48,203.13 135.19,204.05 137.62,204.63 140.05,205.22 141.79,207.29 143.53,209.37 143.55,212.75 143.57,216.13 142.78,219.12 141.98,222.11 141.69,225.12 141.41,228.13 141.73,231.86 142.06,235.60 144.49,240.07 146.92,244.53 148.87,248.29 150.82,252.04 150.99,252.53 151.16,253.02 151.17,253.54 151.18,254.07 151.02,254.56 150.86,255.06 150.55,255.48 150.25,255.90 149.82,256.20 149.39,256.50 148.89,256.64 148.39,256.79 147.87,256.77 147.35,256.75 146.87,256.56 146.38,256.38 145.98,256.05 145.57,255.72 145.30,255.28 145.02,254.83 144.90,254.33 144.78,253.82 144.83,253.30 144.88,252.78 145.09,252.31 145.30,251.83 145.65,251.45 146.01,251.06 146.46,250.81 146.92,250.56 147.43,250.47 147.94,250.38 148.46,250.45 148.98,250.53 149.44,250.76 149.90,251.00 150.27,251.37 150.63,251.75 150.86,252.22 151.08,252.69 151.15,253.20 151.21,253.72 151.11,254.23 151.00,254.74 150.74,255.19 150.48,255.64 150.09,255.98 149.70,256.33 149.22,256.53 148.74,256.73 148.22,256.76 147.70,256.80 147.19,256.67 146.69,256.54 146.25,256.25 145.82,255.97 145.50,255.56 145.17,255.15 145.17,255.15 145.17,255.15 143.05,251.49 140.92,247.84 137.83,242.28 134.74,236.73 133.98,232.03 133.22,227.33 133.65,223.50 134.07,219.66 134.93,217.35 135.80,215.05 134.99,212.16 134.17,209.26 129.53,208.37 124.88,207.48 115.58,205.91 106.28,204.34 86.44,202.24 66.59,200.15 36.02,198.44 5.44,196.73 -37.32,195.40 -80.09,194.08 -131.54,193.63 -182.99,193.19 -228.30,193.21 -273.62,193.22 -296.92,193.22 -320.21,193.22 -335.00,193.17 -349.79,193.12 -359.42,191.98 -369.06,190.83 -369.43,191.01 -369.79,191.19 -370.19,191.28 -370.58,191.37 -370.99,191.36 -371.39,191.35 -371.79,191.24 -372.18,191.14 -372.53,190.94 -372.89,190.74 -373.18,190.47 -373.48,190.19 -373.70,189.85 -373.93,189.51 -374.06,189.13 -374.20,188.75 -374.23,188.34 -374.27,187.94 -374.22,187.54 -374.16,187.14 -374.01,186.76 -373.85,186.39 -373.61,186.06 -373.38,185.73 -373.07,185.47 -372.76,185.21 -371.36,184.33 -369.96,183.46 -366.86,181.59 -363.76,179.72 -357.21,175.60 -350.65,171.49 -339.63,165.09 -328.60,158.70 -314.07,150.71 -299.53,142.73 -281.57,133.16 -263.62,123.58 -243.59,113.53 -223.57,103.48 -201.40,92.84 -179.23,82.20 -155.17,70.69 -131.12,59.19 -111.93,50.55 -92.75,41.92 -76.87,34.64 -60.99,27.35 -48.89,20.97 -36.80,14.58 -27.70,9.82 -18.61,5.06 -14.31,3.25 -10.01,1.43 -5.67,-0.69 -1.33,-2.82 -0.98,-2.94 -0.62,-3.06 -0.24,-3.09 0.12,-3.12 0.49,-3.06 0.87,-3.00 1.21,-2.85 1.56,-2.70 1.86,-2.47 2.16,-2.25 2.40,-1.95 2.64,-1.66 2.80,-1.32 2.96,-0.98 3.03,-0.61 3.11,-0.24 3.09,0.12 3.08,0.50 2.97,0.86 2.87,1.22 2.68,1.55 2.49,1.87 2.23,2.15 1.97,2.42 1.65,2.62 1.33,2.82 1.33,2.82 L 1.33,2.82 Z"></path></g></svg>